<svg xmlns="http://www.w3.org/2000/svg" xmlns:v="https://svgstorm.com"
viewBox = "0 0 500 500"
width="500"
height="500">
<g fill="None" fill-opacity="0.0" stroke="#FEFEFE" stroke-opacity="1.00" stroke-width="0.3"><path d="
M 0.00 500.00 
L 500.00 500.00
L 500.00 0.00
L 0.00 0.00
L 0.00 500.00
M 143.00 232.00 
C 145.96 236.22 139.96 246.20 144.00 250.00
C 148.67 243.79 153.31 237.21 159.00 232.00
C 161.84 230.67 167.57 229.61 167.00 233.00
C 165.84 239.91 153.74 245.92 151.00 252.00
C 156.58 260.29 164.44 267.33 169.00 276.00
C 155.08 279.69 152.55 262.85 143.00 257.00
C 143.00 263.33 143.00 269.67 143.00 276.00
C 140.00 276.00 137.00 276.00 134.00 276.00
C 134.00 261.33 134.00 246.67 134.00 232.00
C 135.20 230.28 141.82 230.32 143.00 232.00
M 297.00 238.00 
C 297.42 238.18 298.77 237.75 299.00 238.00
C 299.27 238.29 301.56 237.95 302.00 238.00
C 309.43 238.77 313.69 245.67 320.00 248.00
C 321.63 244.16 328.18 238.32 332.00 240.00
C 332.67 239.63 333.35 239.35 334.00 239.00
C 335.40 238.24 336.19 238.32 338.00 238.00
C 346.98 236.40 365.77 238.84 367.00 252.00
C 367.05 252.50 367.00 253.00 367.00 253.00
C 367.00 253.50 366.82 254.58 367.00 255.00
C 369.13 260.00 366.48 264.38 368.00 270.00 C 369.52 275.62 361.66 278.80 358.00 275.00
C 358.11 273.46 358.59 270.75 357.00 270.00
C 354.55 273.64 350.30 275.75 346.00 276.00
C 335.53 278.32 325.36 274.51 319.00 265.00
C 316.49 264.66 316.50 268.64 314.00 269.00
C 313.06 269.74 311.98 270.39 311.00 271.00
C 309.72 271.79 308.35 272.35 307.00 273.00
C 303.64 274.62 300.68 275.39 297.00 276.00
C 296.51 276.08 296.00 276.00 296.00 276.00
C 293.50 277.85 291.31 276.45 289.00 276.00
C 279.41 275.28 272.55 269.00 270.00 260.00
C 269.15 257.00 268.97 254.98 270.00 252.00
C 272.57 244.59 280.30 238.50 288.00 238.00
C 291.16 237.30 293.81 236.64 297.00 238.00
M 182.00 243.00 
C 182.62 243.42 181.53 246.37 182.00 247.00
C 186.20 240.59 198.55 239.85 194.00 250.00
C 188.58 248.81 181.78 251.47 183.00 258.00
C 182.66 261.73 185.01 273.89 182.00 276.00
C 180.21 277.25 176.01 275.06 174.00 276.00
C 174.00 265.00 174.00 254.00 174.00 243.00
C 175.47 240.90 180.42 241.93 182.00 243.00
M 220.00 242.00 
C 239.68 246.88 230.64 283.42 209.93 276.07 C 189.21 268.72 197.32 236.38 220.00 242.00
M 243.00 243.00 
C 248.23 247.65 246.25 260.61 251.00 266.00
C 255.79 259.36 256.52 250.46 260.00 243.00
C 261.48 241.79 266.72 240.97 268.00 243.00
C 270.38 246.78 262.36 254.76 262.23 259.23 C 262.10 263.69 256.75 271.04 257.00 276.00
C 253.33 276.00 249.67 276.00 246.00 276.00
C 242.52 264.84 238.26 253.93 234.00 243.00
C 235.98 241.46 241.09 241.30 243.00 243.00 Z"/>
</g>
<g fill="None" fill-opacity="0.0" stroke="#787878" stroke-opacity="1.00" stroke-width="0.3"><path d="
M 134.00 232.00 
C 137.00 232.00 140.00 232.00 143.00 232.00
C 141.82 230.32 135.20 230.28 134.00 232.00 Z"/>
</g>
<g fill="None" fill-opacity="0.0" stroke="#7B7B7B" stroke-opacity="1.00" stroke-width="0.3"><path d="
M 159.00 232.00 
C 161.16 231.35 165.56 231.69 167.00 233.00
C 167.57 229.61 161.84 230.67 159.00 232.00 Z"/>
</g>
<g fill="None" fill-opacity="0.0" stroke="#010101" stroke-opacity="1.00" stroke-width="0.3"><path d="
M 167.00 233.00 
C 165.56 231.69 161.16 231.35 159.00 232.00
C 153.31 237.21 148.67 243.79 144.00 250.00
C 139.96 246.20 145.96 236.22 143.00 232.00
C 140.00 232.00 137.00 232.00 134.00 232.00
C 134.00 246.67 134.00 261.33 134.00 276.00
C 137.00 276.00 140.00 276.00 143.00 276.00
C 143.00 269.67 143.00 263.33 143.00 257.00
C 152.55 262.85 155.08 279.69 169.00 276.00
C 164.44 267.33 156.58 260.29 151.00 252.00
C 153.74 245.92 165.84 239.91 167.00 233.00 Z"/>
</g>
<g fill="None" fill-opacity="0.0" stroke="#A9C4ED" stroke-opacity="1.00" stroke-width="0.3"><path d="
M 288.00 238.00 
C 289.32 237.91 290.68 238.00 292.00 238.00
C 293.49 238.00 295.56 237.62 297.00 238.00
C 293.81 236.64 291.16 237.30 288.00 238.00 Z"/>
</g>
<g fill="None" fill-opacity="0.0" stroke="#8BEAF8" stroke-opacity="1.00" stroke-width="0.3"><path d="
M 338.00 238.00 
C 339.33 237.99 340.67 238.01 342.00 238.00
C 340.50 239.72 336.62 238.53 340.00 241.00
C 345.06 241.59 348.80 243.09 353.00 246.00
C 353.93 246.65 355.18 247.30 356.00 248.00
C 357.36 248.43 361.31 247.26 363.00 246.00
C 364.11 247.67 365.30 249.13 366.00 251.00
C 366.17 251.33 366.88 251.74 367.00 252.00
C 365.77 238.84 346.98 236.40 338.00 238.00 Z"/>
</g>
<g fill="None" fill-opacity="0.0" stroke="#1956D4" stroke-opacity="1.00" stroke-width="0.3"><path d="
M 270.00 252.00 
C 269.56 254.17 269.67 257.81 270.00 260.00
C 272.55 269.00 279.41 275.28 289.00 276.00
C 291.30 276.17 293.69 276.00 296.00 276.00
C 296.00 276.00 296.51 276.08 297.00 276.00
C 294.31 268.44 276.40 267.26 277.00 256.00
C 278.25 255.70 278.71 254.17 280.00 254.00
C 282.27 250.75 284.23 246.45 289.00 246.00
C 290.14 244.59 297.82 239.86 292.00 238.00
C 290.68 238.00 289.32 237.91 288.00 238.00
C 280.30 238.50 272.57 244.59 270.00 252.00 Z"/>
</g>
<g fill="None" fill-opacity="0.0" stroke="#1F73DD" stroke-opacity="1.00" stroke-width="0.3"><path d="
M 289.00 246.00 
C 289.50 245.95 290.00 246.00 290.00 246.00
C 292.92 243.84 298.33 245.70 300.00 241.00
C 299.76 239.12 297.45 239.54 297.00 238.00
C 295.56 237.62 293.49 238.00 292.00 238.00
C 297.82 239.86 290.14 244.59 289.00 246.00 Z"/>
</g>
<g fill="None" fill-opacity="0.0" stroke="#3D95E5" stroke-opacity="1.00" stroke-width="0.3"><path d="
M 290.00 246.00 
C 292.46 246.00 295.60 245.47 298.00 246.00
C 299.40 244.73 302.14 244.17 303.00 242.00
C 302.51 239.78 299.43 240.26 299.00 238.00
C 298.77 237.75 297.42 238.18 297.00 238.00
C 297.45 239.54 299.76 239.12 300.00 241.00
C 298.33 245.70 292.92 243.84 290.00 246.00 Z"/>
</g>
<g fill="None" fill-opacity="0.0" stroke="#53BAEF" stroke-opacity="1.00" stroke-width="0.3"><path d="
M 298.00 246.00 
C 298.23 246.05 298.67 246.83 299.00 247.00
C 301.21 248.10 304.14 249.44 306.00 251.00
C 305.95 248.95 309.50 246.68 311.00 246.00
C 310.19 243.96 307.73 243.03 307.00 241.00
C 305.96 240.38 302.97 238.33 302.00 238.00
C 301.56 237.95 299.27 238.29 299.00 238.00
C 299.43 240.26 302.51 239.78 303.00 242.00
C 302.14 244.17 299.40 244.73 298.00 246.00 Z"/>
</g>
<g fill="None" fill-opacity="0.0" stroke="#E2FCFE" stroke-opacity="1.00" stroke-width="0.3"><path d="
M 307.00 241.00 
C 316.78 246.87 323.68 256.24 332.00 264.00
C 332.38 264.23 333.77 264.74 334.00 265.00
C 332.02 262.45 329.72 259.71 327.00 258.00
C 327.83 253.80 332.91 252.68 335.00 249.00
C 334.62 249.21 334.00 249.00 334.00 249.00
C 329.11 254.11 323.55 257.07 321.00 248.00
C 323.76 246.58 325.27 243.35 328.00 242.00
C 328.66 241.60 329.35 241.36 330.00 241.00
C 330.67 240.63 331.36 240.36 332.00 240.00
C 328.18 238.32 321.63 244.16 320.00 248.00
C 313.69 245.67 309.43 238.77 302.00 238.00
C 302.97 238.33 305.96 240.38 307.00 241.00 Z"/>
</g>
<g fill="None" fill-opacity="0.0" stroke="#66B7EB" stroke-opacity="1.00" stroke-width="0.3"><path d="
M 334.00 239.00 
C 336.97 238.64 334.66 240.08 334.00 241.00
C 336.00 241.00 338.00 241.00 340.00 241.00
C 336.62 238.53 340.50 239.72 342.00 238.00
C 340.67 238.01 339.33 237.99 338.00 238.00
C 336.19 238.32 335.40 238.24 334.00 239.00 Z"/>
</g>
<g fill="None" fill-opacity="0.0" stroke="#358CE7" stroke-opacity="1.00" stroke-width="0.3"><path d="
M 332.00 240.00 
C 331.36 240.36 330.67 240.63 330.00 241.00
C 332.47 241.44 335.71 246.45 338.00 247.00
C 344.99 244.44 355.90 247.96 357.00 256.00
C 357.96 256.84 365.09 256.43 367.00 255.00
C 366.82 254.58 367.00 253.50 367.00 253.00
C 359.17 257.55 358.24 250.57 353.00 246.00
C 348.80 243.09 345.06 241.59 340.00 241.00
C 338.00 241.00 336.00 241.00 334.00 241.00
C 334.66 240.08 336.97 238.64 334.00 239.00
C 333.35 239.35 332.67 239.63 332.00 240.00 Z"/>
</g>
<g fill="None" fill-opacity="0.0" stroke="#86EFF9" stroke-opacity="1.00" stroke-width="0.3"><path d="
M 306.00 251.00 
C 312.74 256.65 317.94 264.66 325.00 270.00
C 323.54 268.66 322.22 266.50 321.00 265.00
C 322.70 263.78 324.34 262.22 325.00 260.00
C 328.28 259.08 329.48 263.03 332.00 264.00
C 323.68 256.24 316.78 246.87 307.00 241.00
C 307.73 243.03 310.19 243.96 311.00 246.00
C 309.50 246.68 305.95 248.95 306.00 251.00 Z"/>
</g>
<g fill="None" fill-opacity="0.0" stroke="#42ABF3" stroke-opacity="1.00" stroke-width="0.3"><path d="
M 328.00 242.00 
C 323.46 245.76 330.67 250.86 334.00 249.00
C 334.00 249.00 334.62 249.21 335.00 249.00
C 335.74 248.59 337.25 247.28 338.00 247.00
C 335.71 246.45 332.47 241.44 330.00 241.00
C 329.35 241.36 328.66 241.60 328.00 242.00 Z"/>
</g>
<g fill="None" fill-opacity="0.0" stroke="#696969" stroke-opacity="1.00" stroke-width="0.3"><path d="
M 174.00 243.00 
C 176.67 243.00 179.33 243.00 182.00 243.00
C 180.42 241.93 175.47 240.90 174.00 243.00 Z"/>
</g>
<g fill="None" fill-opacity="0.0" stroke="#000000" stroke-opacity="1.00" stroke-width="0.3"><path d="
M 182.00 243.00 
C 179.33 243.00 176.67 243.00 174.00 243.00
C 174.00 254.00 174.00 265.00 174.00 276.00
C 176.01 275.06 180.21 277.25 182.00 276.00
C 181.73 269.98 181.91 263.26 183.00 258.00
C 181.78 251.47 188.58 248.81 194.00 250.00
C 198.55 239.85 186.20 240.59 182.00 247.00
C 181.53 246.37 182.62 243.42 182.00 243.00 Z"/>
</g>
<g fill="None" fill-opacity="0.0" stroke="#010101" stroke-opacity="1.00" stroke-width="0.3"><path d="
M 220.00 242.00 
C 197.32 236.38 189.21 268.72 209.93 276.07 C 230.64 283.42 239.68 246.88 220.00 242.00
M 218.00 249.00 
C 228.13 252.95 220.25 274.65 210.33 268.67 C 200.41 262.69 207.61 244.95 218.00 249.00 Z"/>
</g>
<g fill="None" fill-opacity="0.0" stroke="#6A6A6A" stroke-opacity="1.00" stroke-width="0.3"><path d="
M 234.00 243.00 
C 237.00 243.00 240.00 243.00 243.00 243.00
C 241.09 241.30 235.98 241.46 234.00 243.00 Z"/>
</g>
<g fill="None" fill-opacity="0.0" stroke="#6A6968" stroke-opacity="1.00" stroke-width="0.3"><path d="
M 260.00 243.00 
C 262.01 241.85 265.82 243.86 268.00 243.00
C 266.72 240.97 261.48 241.79 260.00 243.00 Z"/>
</g>
<g fill="None" fill-opacity="0.0" stroke="#74DBF5" stroke-opacity="1.00" stroke-width="0.3"><path d="
M 334.00 249.00 
C 330.67 250.86 323.46 245.76 328.00 242.00
C 325.27 243.35 323.76 246.58 321.00 248.00
C 323.55 257.07 329.11 254.11 334.00 249.00 Z"/>
</g>
<g fill="None" fill-opacity="0.0" stroke="#010101" stroke-opacity="1.00" stroke-width="0.3"><path d="
M 268.00 243.00 
C 265.82 243.86 262.01 241.85 260.00 243.00
C 256.52 250.46 255.79 259.36 251.00 266.00
C 246.25 260.61 248.23 247.65 243.00 243.00
C 240.00 243.00 237.00 243.00 234.00 243.00
C 238.26 253.93 242.52 264.84 246.00 276.00
C 249.67 276.00 253.33 276.00 257.00 276.00
C 256.75 271.04 262.10 263.69 262.23 259.23 C 262.36 254.76 270.38 246.78 268.00 243.00 Z"/>
</g>
<g fill="None" fill-opacity="0.0" stroke="#F8FCFD" stroke-opacity="1.00" stroke-width="0.3"><path d="
M 280.00 254.00 
C 277.33 267.21 289.46 266.56 298.00 268.00
C 299.32 267.67 301.42 265.62 303.00 265.00
C 304.25 262.00 307.61 259.55 310.00 258.00
C 309.03 252.10 301.34 251.97 299.00 247.00
C 298.67 246.83 298.23 246.05 298.00 246.00
C 295.60 245.47 292.46 246.00 290.00 246.00
C 290.00 246.00 289.50 245.95 289.00 246.00
C 284.23 246.45 282.27 250.75 280.00 254.00 Z"/>
</g>
<g fill="None" fill-opacity="0.0" stroke="#F8FCFD" stroke-opacity="1.00" stroke-width="0.3"><path d="
M 338.00 247.00 
C 337.25 247.28 335.74 248.59 335.00 249.00
C 332.91 252.68 327.83 253.80 327.00 258.00
C 329.72 259.71 332.02 262.45 334.00 265.00
C 334.23 265.26 334.74 265.77 335.00 266.00
C 337.96 268.56 342.29 268.00 346.00 268.00
C 346.92 268.00 348.10 268.18 349.00 268.00
C 354.02 267.02 357.65 260.72 357.00 256.00
C 355.90 247.96 344.99 244.44 338.00 247.00 Z"/>
</g>
<g fill="None" fill-opacity="0.0" stroke="#3FAEF3" stroke-opacity="1.00" stroke-width="0.3"><path d="
M 367.00 253.00 
C 367.00 253.00 367.05 252.50 367.00 252.00
C 366.88 251.74 366.17 251.33 366.00 251.00
C 361.28 251.90 359.59 251.06 356.00 248.00
C 355.18 247.30 353.93 246.65 353.00 246.00
C 358.24 250.57 359.17 257.55 367.00 253.00 Z"/>
</g>
<g fill="None" fill-opacity="0.0" stroke="#58CAF5" stroke-opacity="1.00" stroke-width="0.3"><path d="
M 356.00 248.00 
C 359.59 251.06 361.28 251.90 366.00 251.00
C 365.30 249.13 364.11 247.67 363.00 246.00
C 361.31 247.26 357.36 248.43 356.00 248.00 Z"/>
</g>
<g fill="None" fill-opacity="0.0" stroke="#DFFAFE" stroke-opacity="1.00" stroke-width="0.3"><path d="
M 303.00 265.00 
C 303.43 264.83 304.00 265.00 304.00 265.00
C 305.49 262.86 307.67 261.18 309.00 259.00
C 312.83 260.04 318.60 265.33 314.00 269.00
C 316.50 268.64 316.49 264.66 319.00 265.00
C 325.36 274.51 335.53 278.32 346.00 276.00
C 344.68 276.09 343.32 276.00 342.00 276.00
C 339.09 275.99 336.67 275.89 334.00 275.00
C 332.03 274.34 329.76 273.09 328.00 272.00
C 327.01 271.39 325.89 270.67 325.00 270.00
C 317.94 264.66 312.74 256.65 306.00 251.00
C 304.14 249.44 301.21 248.10 299.00 247.00
C 301.34 251.97 309.03 252.10 310.00 258.00
C 307.61 259.55 304.25 262.00 303.00 265.00 Z"/>
</g>
<g fill="None" fill-opacity="0.0" stroke="#F5F5F5" stroke-opacity="1.00" stroke-width="0.3"><path d="
M 218.00 249.00 
C 207.61 244.95 200.41 262.69 210.33 268.67 C 220.25 274.65 228.13 252.95 218.00 249.00 Z"/>
</g>
<g fill="None" fill-opacity="0.0" stroke="#CAE1FF" stroke-opacity="1.00" stroke-width="0.3"><path d="
M 270.00 260.00 
C 269.67 257.81 269.56 254.17 270.00 252.00
C 268.97 254.98 269.15 257.00 270.00 260.00 Z"/>
</g>
<g fill="None" fill-opacity="0.0" stroke="#2E7CDF" stroke-opacity="1.00" stroke-width="0.3"><path d="
M 297.00 276.00 
C 300.68 275.39 303.64 274.62 307.00 273.00
C 307.53 270.68 299.87 268.32 298.00 268.00
C 289.46 266.56 277.33 267.21 280.00 254.00
C 278.71 254.17 278.25 255.70 277.00 256.00
C 276.40 267.26 294.31 268.44 297.00 276.00 Z"/>
</g>
<g fill="None" fill-opacity="0.0" stroke="#2468D7" stroke-opacity="1.00" stroke-width="0.3"><path d="
M 357.00 256.00 
C 357.65 260.72 354.02 267.02 349.00 268.00
C 346.76 270.40 345.76 275.11 342.00 276.00
C 343.32 276.00 344.68 276.09 346.00 276.00
C 350.30 275.75 354.55 273.64 357.00 270.00
C 358.59 270.75 358.11 273.46 358.00 275.00
C 358.00 274.97 359.00 275.00 359.00 275.00
C 359.74 271.26 358.80 267.71 359.39 265.25 C 359.99 262.78 363.95 256.65 367.00 261.00
C 367.00 259.00 367.00 257.00 367.00 255.00
C 365.09 256.43 357.96 256.84 357.00 256.00 Z"/>
</g>
<g fill="None" fill-opacity="0.0" stroke="#ABC5F9" stroke-opacity="1.00" stroke-width="0.3"><path d="
M 367.00 261.00 
C 367.00 265.67 367.00 270.33 367.00 275.00
C 364.33 275.00 361.67 275.00 359.00 275.00
C 359.00 275.00 358.00 274.97 358.00 275.00
C 361.66 278.80 369.52 275.62 368.00 270.00 C 366.48 264.38 369.13 260.00 367.00 255.00
C 367.00 257.00 367.00 259.00 367.00 261.00 Z"/>
</g>
<g fill="None" fill-opacity="0.0" stroke="#787878" stroke-opacity="1.00" stroke-width="0.3"><path d="
M 182.00 276.00 
C 185.01 273.89 182.66 261.73 183.00 258.00
C 181.91 263.26 181.73 269.98 182.00 276.00 Z"/>
</g>
<g fill="None" fill-opacity="0.0" stroke="#79D8F4" stroke-opacity="1.00" stroke-width="0.3"><path d="
M 304.00 265.00 
C 307.69 261.25 315.47 266.74 311.00 271.00
C 311.98 270.39 313.06 269.74 314.00 269.00
C 318.60 265.33 312.83 260.04 309.00 259.00
C 307.67 261.18 305.49 262.86 304.00 265.00 Z"/>
</g>
<g fill="None" fill-opacity="0.0" stroke="#5DD0F5" stroke-opacity="1.00" stroke-width="0.3"><path d="
M 325.00 270.00 
C 325.89 270.67 327.01 271.39 328.00 272.00
C 329.51 272.08 335.67 267.10 335.00 266.00
C 334.74 265.77 334.23 265.26 334.00 265.00
C 333.77 264.74 332.38 264.23 332.00 264.00
C 329.48 263.03 328.28 259.08 325.00 260.00
C 324.34 262.22 322.70 263.78 321.00 265.00
C 322.22 266.50 323.54 268.66 325.00 270.00 Z"/>
</g>
<g fill="None" fill-opacity="0.0" stroke="#184BC1" stroke-opacity="1.00" stroke-width="0.3"><path d="
M 359.00 275.00 
C 361.67 275.00 364.33 275.00 367.00 275.00
C 367.00 270.33 367.00 265.67 367.00 261.00
C 363.95 256.65 359.99 262.78 359.39 265.25 C 358.80 267.71 359.74 271.26 359.00 275.00 Z"/>
</g>
<g fill="None" fill-opacity="0.0" stroke="#47ADEE" stroke-opacity="1.00" stroke-width="0.3"><path d="
M 304.00 265.00 
C 304.00 265.00 303.43 264.83 303.00 265.00
C 301.42 265.62 299.32 267.67 298.00 268.00
C 299.87 268.32 307.53 270.68 307.00 273.00
C 308.35 272.35 309.72 271.79 311.00 271.00
C 315.47 266.74 307.69 261.25 304.00 265.00 Z"/>
</g>
<g fill="None" fill-opacity="0.0" stroke="#46ABEA" stroke-opacity="1.00" stroke-width="0.3"><path d="
M 328.00 272.00 
C 329.76 273.09 332.03 274.34 334.00 275.00
C 337.88 274.99 342.34 268.84 346.00 268.00
C 342.29 268.00 337.96 268.56 335.00 266.00
C 335.67 267.10 329.51 272.08 328.00 272.00 Z"/>
</g>
<g fill="None" fill-opacity="0.0" stroke="#2F89DF" stroke-opacity="1.00" stroke-width="0.3"><path d="
M 334.00 275.00 
C 336.67 275.89 339.09 275.99 342.00 276.00
C 345.76 275.11 346.76 270.40 349.00 268.00
C 348.10 268.18 346.92 268.00 346.00 268.00
C 342.34 268.84 337.88 274.99 334.00 275.00 Z"/>
</g>
<g fill="None" fill-opacity="0.0" stroke="#C7DFFC" stroke-opacity="1.00" stroke-width="0.3"><path d="
M 296.00 276.00 
C 293.69 276.00 291.30 276.17 289.00 276.00
C 291.31 276.45 293.50 277.85 296.00 276.00 Z"/>
</g>
<g fill="#FEFEFE" fill-opacity="1.00" stroke="None">
<path d="
M 0.00 500.00 
L 500.00 500.00
L 500.00 0.00
L 0.00 0.00
L 0.00 500.00
M 143.00 232.00 
C 145.96 236.22 139.96 246.20 144.00 250.00
C 148.67 243.79 153.31 237.21 159.00 232.00
C 161.84 230.67 167.57 229.61 167.00 233.00
C 165.84 239.91 153.74 245.92 151.00 252.00
C 156.58 260.29 164.44 267.33 169.00 276.00
C 155.08 279.69 152.55 262.85 143.00 257.00
C 143.00 263.33 143.00 269.67 143.00 276.00
C 140.00 276.00 137.00 276.00 134.00 276.00
C 134.00 261.33 134.00 246.67 134.00 232.00
C 135.20 230.28 141.82 230.32 143.00 232.00
M 297.00 238.00 
C 297.42 238.18 298.77 237.75 299.00 238.00
C 299.27 238.29 301.56 237.95 302.00 238.00
C 309.43 238.77 313.69 245.67 320.00 248.00
C 321.63 244.16 328.18 238.32 332.00 240.00
C 332.67 239.63 333.35 239.35 334.00 239.00
C 335.40 238.24 336.19 238.32 338.00 238.00
C 346.98 236.40 365.77 238.84 367.00 252.00
C 367.05 252.50 367.00 253.00 367.00 253.00
C 367.00 253.50 366.82 254.58 367.00 255.00
C 369.13 260.00 366.48 264.38 368.00 270.00 C 369.52 275.62 361.66 278.80 358.00 275.00
C 358.11 273.46 358.59 270.75 357.00 270.00
C 354.55 273.64 350.30 275.75 346.00 276.00
C 335.53 278.32 325.36 274.51 319.00 265.00
C 316.49 264.66 316.50 268.64 314.00 269.00
C 313.06 269.74 311.98 270.39 311.00 271.00
C 309.72 271.79 308.35 272.35 307.00 273.00
C 303.64 274.62 300.68 275.39 297.00 276.00
C 296.51 276.08 296.00 276.00 296.00 276.00
C 293.50 277.85 291.31 276.45 289.00 276.00
C 279.41 275.28 272.55 269.00 270.00 260.00
C 269.15 257.00 268.97 254.98 270.00 252.00
C 272.57 244.59 280.30 238.50 288.00 238.00
C 291.16 237.30 293.81 236.64 297.00 238.00
M 182.00 243.00 
C 182.62 243.42 181.53 246.37 182.00 247.00
C 186.20 240.59 198.55 239.85 194.00 250.00
C 188.58 248.81 181.78 251.47 183.00 258.00
C 182.66 261.73 185.01 273.89 182.00 276.00
C 180.21 277.25 176.01 275.06 174.00 276.00
C 174.00 265.00 174.00 254.00 174.00 243.00
C 175.47 240.90 180.42 241.93 182.00 243.00
M 220.00 242.00 
C 239.68 246.88 230.64 283.42 209.93 276.07 C 189.21 268.72 197.32 236.38 220.00 242.00
M 243.00 243.00 
C 248.23 247.65 246.25 260.61 251.00 266.00
C 255.79 259.36 256.52 250.46 260.00 243.00
C 261.48 241.79 266.72 240.97 268.00 243.00
C 270.38 246.78 262.36 254.76 262.23 259.23 C 262.10 263.69 256.75 271.04 257.00 276.00
C 253.33 276.00 249.67 276.00 246.00 276.00
C 242.52 264.84 238.26 253.93 234.00 243.00
C 235.98 241.46 241.09 241.30 243.00 243.00 Z"/>
</g>
<g fill="#787878" fill-opacity="1.00" stroke="None">
<path d="
M 134.00 232.00 
C 137.00 232.00 140.00 232.00 143.00 232.00
C 141.82 230.32 135.20 230.28 134.00 232.00 Z"/>
</g>
<g fill="#7B7B7B" fill-opacity="1.00" stroke="None">
<path d="
M 159.00 232.00 
C 161.16 231.35 165.56 231.69 167.00 233.00
C 167.57 229.61 161.84 230.67 159.00 232.00 Z"/>
</g>
<g fill="#010101" fill-opacity="1.00" stroke="None">
<path d="
M 167.00 233.00 
C 165.56 231.69 161.16 231.35 159.00 232.00
C 153.31 237.21 148.67 243.79 144.00 250.00
C 139.96 246.20 145.96 236.22 143.00 232.00
C 140.00 232.00 137.00 232.00 134.00 232.00
C 134.00 246.67 134.00 261.33 134.00 276.00
C 137.00 276.00 140.00 276.00 143.00 276.00
C 143.00 269.67 143.00 263.33 143.00 257.00
C 152.55 262.85 155.08 279.69 169.00 276.00
C 164.44 267.33 156.58 260.29 151.00 252.00
C 153.74 245.92 165.84 239.91 167.00 233.00 Z"/>
</g>
<g fill="#A9C4ED" fill-opacity="1.00" stroke="None">
<path d="
M 288.00 238.00 
C 289.32 237.91 290.68 238.00 292.00 238.00
C 293.49 238.00 295.56 237.62 297.00 238.00
C 293.81 236.64 291.16 237.30 288.00 238.00 Z"/>
</g>
<g fill="#8BEAF8" fill-opacity="1.00" stroke="None">
<path d="
M 338.00 238.00 
C 339.33 237.99 340.67 238.01 342.00 238.00
C 340.50 239.72 336.62 238.53 340.00 241.00
C 345.06 241.59 348.80 243.09 353.00 246.00
C 353.93 246.65 355.18 247.30 356.00 248.00
C 357.36 248.43 361.31 247.26 363.00 246.00
C 364.11 247.67 365.30 249.13 366.00 251.00
C 366.17 251.33 366.88 251.74 367.00 252.00
C 365.77 238.84 346.98 236.40 338.00 238.00 Z"/>
</g>
<g fill="#1956D4" fill-opacity="1.00" stroke="None">
<path d="
M 270.00 252.00 
C 269.56 254.17 269.67 257.81 270.00 260.00
C 272.55 269.00 279.41 275.28 289.00 276.00
C 291.30 276.17 293.69 276.00 296.00 276.00
C 296.00 276.00 296.51 276.08 297.00 276.00
C 294.31 268.44 276.40 267.26 277.00 256.00
C 278.25 255.70 278.71 254.17 280.00 254.00
C 282.27 250.75 284.23 246.45 289.00 246.00
C 290.14 244.59 297.82 239.86 292.00 238.00
C 290.68 238.00 289.32 237.91 288.00 238.00
C 280.30 238.50 272.57 244.59 270.00 252.00 Z"/>
</g>
<g fill="#1F73DD" fill-opacity="1.00" stroke="None">
<path d="
M 289.00 246.00 
C 289.50 245.95 290.00 246.00 290.00 246.00
C 292.92 243.84 298.33 245.70 300.00 241.00
C 299.76 239.12 297.45 239.54 297.00 238.00
C 295.56 237.62 293.49 238.00 292.00 238.00
C 297.82 239.86 290.14 244.59 289.00 246.00 Z"/>
</g>
<g fill="#3D95E5" fill-opacity="1.00" stroke="None">
<path d="
M 290.00 246.00 
C 292.46 246.00 295.60 245.47 298.00 246.00
C 299.40 244.73 302.14 244.17 303.00 242.00
C 302.51 239.78 299.43 240.26 299.00 238.00
C 298.77 237.75 297.42 238.18 297.00 238.00
C 297.45 239.54 299.76 239.12 300.00 241.00
C 298.33 245.70 292.92 243.84 290.00 246.00 Z"/>
</g>
<g fill="#53BAEF" fill-opacity="1.00" stroke="None">
<path d="
M 298.00 246.00 
C 298.23 246.05 298.67 246.83 299.00 247.00
C 301.21 248.10 304.14 249.44 306.00 251.00
C 305.95 248.95 309.50 246.68 311.00 246.00
C 310.19 243.96 307.73 243.03 307.00 241.00
C 305.96 240.38 302.97 238.33 302.00 238.00
C 301.56 237.95 299.27 238.29 299.00 238.00
C 299.43 240.26 302.51 239.78 303.00 242.00
C 302.14 244.17 299.40 244.73 298.00 246.00 Z"/>
</g>
<g fill="#E2FCFE" fill-opacity="1.00" stroke="None">
<path d="
M 307.00 241.00 
C 316.78 246.87 323.68 256.24 332.00 264.00
C 332.38 264.23 333.77 264.74 334.00 265.00
C 332.02 262.45 329.72 259.71 327.00 258.00
C 327.83 253.80 332.91 252.68 335.00 249.00
C 334.62 249.21 334.00 249.00 334.00 249.00
C 329.11 254.11 323.55 257.07 321.00 248.00
C 323.76 246.58 325.27 243.35 328.00 242.00
C 328.66 241.60 329.35 241.36 330.00 241.00
C 330.67 240.63 331.36 240.36 332.00 240.00
C 328.18 238.32 321.63 244.16 320.00 248.00
C 313.69 245.67 309.43 238.77 302.00 238.00
C 302.97 238.33 305.96 240.38 307.00 241.00 Z"/>
</g>
<g fill="#66B7EB" fill-opacity="1.00" stroke="None">
<path d="
M 334.00 239.00 
C 336.97 238.64 334.66 240.08 334.00 241.00
C 336.00 241.00 338.00 241.00 340.00 241.00
C 336.62 238.53 340.50 239.72 342.00 238.00
C 340.67 238.01 339.33 237.99 338.00 238.00
C 336.19 238.32 335.40 238.24 334.00 239.00 Z"/>
</g>
<g fill="#358CE7" fill-opacity="1.00" stroke="None">
<path d="
M 332.00 240.00 
C 331.36 240.36 330.67 240.63 330.00 241.00
C 332.47 241.44 335.71 246.45 338.00 247.00
C 344.99 244.44 355.90 247.96 357.00 256.00
C 357.96 256.84 365.09 256.43 367.00 255.00
C 366.82 254.58 367.00 253.50 367.00 253.00
C 359.17 257.55 358.24 250.57 353.00 246.00
C 348.80 243.09 345.06 241.59 340.00 241.00
C 338.00 241.00 336.00 241.00 334.00 241.00
C 334.66 240.08 336.97 238.64 334.00 239.00
C 333.35 239.35 332.67 239.63 332.00 240.00 Z"/>
</g>
<g fill="#86EFF9" fill-opacity="1.00" stroke="None">
<path d="
M 306.00 251.00 
C 312.74 256.65 317.94 264.66 325.00 270.00
C 323.54 268.66 322.22 266.50 321.00 265.00
C 322.70 263.78 324.34 262.22 325.00 260.00
C 328.28 259.08 329.48 263.03 332.00 264.00
C 323.68 256.24 316.78 246.87 307.00 241.00
C 307.73 243.03 310.19 243.96 311.00 246.00
C 309.50 246.68 305.95 248.95 306.00 251.00 Z"/>
</g>
<g fill="#42ABF3" fill-opacity="1.00" stroke="None">
<path d="
M 328.00 242.00 
C 323.46 245.76 330.67 250.86 334.00 249.00
C 334.00 249.00 334.62 249.21 335.00 249.00
C 335.74 248.59 337.25 247.28 338.00 247.00
C 335.71 246.45 332.47 241.44 330.00 241.00
C 329.35 241.36 328.66 241.60 328.00 242.00 Z"/>
</g>
<g fill="#696969" fill-opacity="1.00" stroke="None">
<path d="
M 174.00 243.00 
C 176.67 243.00 179.33 243.00 182.00 243.00
C 180.42 241.93 175.47 240.90 174.00 243.00 Z"/>
</g>
<g fill="#000000" fill-opacity="1.00" stroke="None">
<path d="
M 182.00 243.00 
C 179.33 243.00 176.67 243.00 174.00 243.00
C 174.00 254.00 174.00 265.00 174.00 276.00
C 176.01 275.06 180.21 277.25 182.00 276.00
C 181.73 269.98 181.91 263.26 183.00 258.00
C 181.78 251.47 188.58 248.81 194.00 250.00
C 198.55 239.85 186.20 240.59 182.00 247.00
C 181.53 246.37 182.62 243.42 182.00 243.00 Z"/>
</g>
<g fill="#010101" fill-opacity="1.00" stroke="None">
<path d="
M 220.00 242.00 
C 197.32 236.38 189.21 268.72 209.93 276.07 C 230.64 283.42 239.68 246.88 220.00 242.00
M 218.00 249.00 
C 228.13 252.95 220.25 274.65 210.33 268.67 C 200.41 262.69 207.61 244.95 218.00 249.00 Z"/>
</g>
<g fill="#6A6A6A" fill-opacity="1.00" stroke="None">
<path d="
M 234.00 243.00 
C 237.00 243.00 240.00 243.00 243.00 243.00
C 241.09 241.30 235.98 241.46 234.00 243.00 Z"/>
</g>
<g fill="#6A6968" fill-opacity="1.00" stroke="None">
<path d="
M 260.00 243.00 
C 262.01 241.85 265.82 243.86 268.00 243.00
C 266.72 240.97 261.48 241.79 260.00 243.00 Z"/>
</g>
<g fill="#74DBF5" fill-opacity="1.00" stroke="None">
<path d="
M 334.00 249.00 
C 330.67 250.86 323.46 245.76 328.00 242.00
C 325.27 243.35 323.76 246.58 321.00 248.00
C 323.55 257.07 329.11 254.11 334.00 249.00 Z"/>
</g>
<g fill="#010101" fill-opacity="1.00" stroke="None">
<path d="
M 268.00 243.00 
C 265.82 243.86 262.01 241.85 260.00 243.00
C 256.52 250.46 255.79 259.36 251.00 266.00
C 246.25 260.61 248.23 247.65 243.00 243.00
C 240.00 243.00 237.00 243.00 234.00 243.00
C 238.26 253.93 242.52 264.84 246.00 276.00
C 249.67 276.00 253.33 276.00 257.00 276.00
C 256.75 271.04 262.10 263.69 262.23 259.23 C 262.36 254.76 270.38 246.78 268.00 243.00 Z"/>
</g>
<g fill="#F8FCFD" fill-opacity="1.00" stroke="None">
<path d="
M 280.00 254.00 
C 277.33 267.21 289.46 266.56 298.00 268.00
C 299.32 267.67 301.42 265.62 303.00 265.00
C 304.25 262.00 307.61 259.55 310.00 258.00
C 309.03 252.10 301.34 251.97 299.00 247.00
C 298.67 246.83 298.23 246.05 298.00 246.00
C 295.60 245.47 292.46 246.00 290.00 246.00
C 290.00 246.00 289.50 245.95 289.00 246.00
C 284.23 246.45 282.27 250.75 280.00 254.00 Z"/>
</g>
<g fill="#F8FCFD" fill-opacity="1.00" stroke="None">
<path d="
M 338.00 247.00 
C 337.25 247.28 335.74 248.59 335.00 249.00
C 332.91 252.68 327.83 253.80 327.00 258.00
C 329.72 259.71 332.02 262.45 334.00 265.00
C 334.23 265.26 334.74 265.77 335.00 266.00
C 337.96 268.56 342.29 268.00 346.00 268.00
C 346.92 268.00 348.10 268.18 349.00 268.00
C 354.02 267.02 357.65 260.72 357.00 256.00
C 355.90 247.96 344.99 244.44 338.00 247.00 Z"/>
</g>
<g fill="#3FAEF3" fill-opacity="1.00" stroke="None">
<path d="
M 367.00 253.00 
C 367.00 253.00 367.05 252.50 367.00 252.00
C 366.88 251.74 366.17 251.33 366.00 251.00
C 361.28 251.90 359.59 251.06 356.00 248.00
C 355.18 247.30 353.93 246.65 353.00 246.00
C 358.24 250.57 359.17 257.55 367.00 253.00 Z"/>
</g>
<g fill="#58CAF5" fill-opacity="1.00" stroke="None">
<path d="
M 356.00 248.00 
C 359.59 251.06 361.28 251.90 366.00 251.00
C 365.30 249.13 364.11 247.67 363.00 246.00
C 361.31 247.26 357.36 248.43 356.00 248.00 Z"/>
</g>
<g fill="#DFFAFE" fill-opacity="1.00" stroke="None">
<path d="
M 303.00 265.00 
C 303.43 264.83 304.00 265.00 304.00 265.00
C 305.49 262.86 307.67 261.18 309.00 259.00
C 312.83 260.04 318.60 265.33 314.00 269.00
C 316.50 268.64 316.49 264.66 319.00 265.00
C 325.36 274.51 335.53 278.32 346.00 276.00
C 344.68 276.09 343.32 276.00 342.00 276.00
C 339.09 275.99 336.67 275.89 334.00 275.00
C 332.03 274.34 329.76 273.09 328.00 272.00
C 327.01 271.39 325.89 270.67 325.00 270.00
C 317.94 264.66 312.74 256.65 306.00 251.00
C 304.14 249.44 301.21 248.10 299.00 247.00
C 301.34 251.97 309.03 252.10 310.00 258.00
C 307.61 259.55 304.25 262.00 303.00 265.00 Z"/>
</g>
<g fill="#F5F5F5" fill-opacity="1.00" stroke="None">
<path d="
M 218.00 249.00 
C 207.61 244.95 200.41 262.69 210.33 268.67 C 220.25 274.65 228.13 252.95 218.00 249.00 Z"/>
</g>
<g fill="#CAE1FF" fill-opacity="1.00" stroke="None">
<path d="
M 270.00 260.00 
C 269.67 257.81 269.56 254.17 270.00 252.00
C 268.97 254.98 269.15 257.00 270.00 260.00 Z"/>
</g>
<g fill="#2E7CDF" fill-opacity="1.00" stroke="None">
<path d="
M 297.00 276.00 
C 300.68 275.39 303.64 274.62 307.00 273.00
C 307.53 270.68 299.87 268.32 298.00 268.00
C 289.46 266.56 277.33 267.21 280.00 254.00
C 278.71 254.17 278.25 255.70 277.00 256.00
C 276.40 267.26 294.31 268.44 297.00 276.00 Z"/>
</g>
<g fill="#2468D7" fill-opacity="1.00" stroke="None">
<path d="
M 357.00 256.00 
C 357.65 260.72 354.02 267.02 349.00 268.00
C 346.76 270.40 345.76 275.11 342.00 276.00
C 343.32 276.00 344.68 276.09 346.00 276.00
C 350.30 275.75 354.55 273.64 357.00 270.00
C 358.59 270.75 358.11 273.46 358.00 275.00
C 358.00 274.97 359.00 275.00 359.00 275.00
C 359.74 271.26 358.80 267.71 359.39 265.25 C 359.99 262.78 363.95 256.65 367.00 261.00
C 367.00 259.00 367.00 257.00 367.00 255.00
C 365.09 256.43 357.96 256.84 357.00 256.00 Z"/>
</g>
<g fill="#ABC5F9" fill-opacity="1.00" stroke="None">
<path d="
M 367.00 261.00 
C 367.00 265.67 367.00 270.33 367.00 275.00
C 364.33 275.00 361.67 275.00 359.00 275.00
C 359.00 275.00 358.00 274.97 358.00 275.00
C 361.66 278.80 369.52 275.62 368.00 270.00 C 366.48 264.38 369.13 260.00 367.00 255.00
C 367.00 257.00 367.00 259.00 367.00 261.00 Z"/>
</g>
<g fill="#787878" fill-opacity="1.00" stroke="None">
<path d="
M 182.00 276.00 
C 185.01 273.89 182.66 261.73 183.00 258.00
C 181.91 263.26 181.73 269.98 182.00 276.00 Z"/>
</g>
<g fill="#79D8F4" fill-opacity="1.00" stroke="None">
<path d="
M 304.00 265.00 
C 307.69 261.25 315.47 266.74 311.00 271.00
C 311.98 270.39 313.06 269.74 314.00 269.00
C 318.60 265.33 312.83 260.04 309.00 259.00
C 307.67 261.18 305.49 262.86 304.00 265.00 Z"/>
</g>
<g fill="#5DD0F5" fill-opacity="1.00" stroke="None">
<path d="
M 325.00 270.00 
C 325.89 270.67 327.01 271.39 328.00 272.00
C 329.51 272.08 335.67 267.10 335.00 266.00
C 334.74 265.77 334.23 265.26 334.00 265.00
C 333.77 264.74 332.38 264.23 332.00 264.00
C 329.48 263.03 328.28 259.08 325.00 260.00
C 324.34 262.22 322.70 263.78 321.00 265.00
C 322.22 266.50 323.54 268.66 325.00 270.00 Z"/>
</g>
<g fill="#184BC1" fill-opacity="1.00" stroke="None">
<path d="
M 359.00 275.00 
C 361.67 275.00 364.33 275.00 367.00 275.00
C 367.00 270.33 367.00 265.67 367.00 261.00
C 363.95 256.65 359.99 262.78 359.39 265.25 C 358.80 267.71 359.74 271.26 359.00 275.00 Z"/>
</g>
<g fill="#47ADEE" fill-opacity="1.00" stroke="None">
<path d="
M 304.00 265.00 
C 304.00 265.00 303.43 264.83 303.00 265.00
C 301.42 265.62 299.32 267.67 298.00 268.00
C 299.87 268.32 307.53 270.68 307.00 273.00
C 308.35 272.35 309.72 271.79 311.00 271.00
C 315.47 266.74 307.69 261.25 304.00 265.00 Z"/>
</g>
<g fill="#46ABEA" fill-opacity="1.00" stroke="None">
<path d="
M 328.00 272.00 
C 329.76 273.09 332.03 274.34 334.00 275.00
C 337.88 274.99 342.34 268.84 346.00 268.00
C 342.29 268.00 337.96 268.56 335.00 266.00
C 335.67 267.10 329.51 272.08 328.00 272.00 Z"/>
</g>
<g fill="#2F89DF" fill-opacity="1.00" stroke="None">
<path d="
M 334.00 275.00 
C 336.67 275.89 339.09 275.99 342.00 276.00
C 345.76 275.11 346.76 270.40 349.00 268.00
C 348.10 268.18 346.92 268.00 346.00 268.00
C 342.34 268.84 337.88 274.99 334.00 275.00 Z"/>
</g>
<g fill="#C7DFFC" fill-opacity="1.00" stroke="None">
<path d="
M 296.00 276.00 
C 293.69 276.00 291.30 276.17 289.00 276.00
C 291.31 276.45 293.50 277.85 296.00 276.00 Z"/>
</g>
</svg>